Patient4_TMGait_0pt4_01_left_13_GRF.mot
version=1
nRows=26
nColumns=19
inDegrees=no
endheader
time	F1x	F1y	F1z	M1x	M1y	M1z	F2x	F2y	F2z	M2x	M2y	M2z	EC1x	EC1y	EC1z	EC2x	EC2y	EC2z
16.01	1.5034	-4.4194	0.76335	1.0417	-0.35945	-16.8952	-31.3707	719.078	-55.3664	259.43	65.4538	769.3696	-0.0592	0.0182	-0.0073	-0.0462	0.0165	0.9585
16.0235	1.1151	-2.6069	0.50972	0.58029	-0.19586	-10.8825	-26.2889	729.6822	-55.1834	262.3242	64.3518	778.1661	-0.0592	0.0182	-0.0073	-0.0462	0.0165	0.9585
16.037	0.79967	-1.068	0.2995	0.17855	-0.071917	-5.7996	-21.8141	741.7861	-54.961	265.8804	63.2974	788.0824	-0.0592	0.0182	-0.0073	-0.0462	0.0165	0.9585
16.0505	0.56439	0.11582	0.14676	-0.14197	0.0051895	-1.921	-18.168	754.5439	-54.6496	269.8707	62.2688	798.3007	-0.0592	0.0182	-0.0073	-0.0462	0.0165	0.9585
16.064	0.39501	0.94982	0.041166	-0.37909	0.049069	0.77085	-15.3314	766.9738	-54.1744	273.9682	61.1768	807.859	-0.0592	0.0182	-0.0073	-0.0462	0.0165	0.9585
16.0775	0.28128	1.4713	-0.021565	-0.53729	0.068886	2.4338	-13.1845	778.0762	-53.4617	277.8034	59.9167	815.7901	-0.0592	0.0182	-0.0073	-0.0462	0.0165	0.9585
16.091	0.19158	1.7421	-0.054151	-0.62681	0.071671	3.3114	-11.5558	786.9491	-52.4707	281.0146	58.4084	821.2411	-0.0592	0.0182	-0.0073	-0.0462	0.0165	0.9585
16.1045	0.11938	1.7929	-0.055278	-0.64881	0.053032	3.5868	-10.2748	792.875	-51.2107	283.2884	56.6246	823.5646	-0.0592	0.0182	-0.0073	-0.0462	0.0165	0.9585
16.118	0.042986	1.6428	-0.033011	-0.60105	0.010313	3.4122	-9.1862	795.3583	-49.7336	284.3881	54.5797	822.3379	-0.0592	0.0182	-0.0073	-0.0462	0.0165	0.9585
16.1315	-0.049491	1.2784	0.011976	-0.47202	-0.06537	2.8707	-8.1292	794.1616	-48.1182	284.178	52.3125	817.3714	-0.0592	0.0182	-0.0073	-0.0462	0.0165	0.9585
16.145	-0.15236	0.66193	0.071406	-0.24315	-0.16888	1.982	-6.9432	789.3626	-46.4917	282.6467	49.9138	808.7742	-0.0592	0.0182	-0.0073	-0.0462	0.0165	0.9585
16.1585	-0.2724	-0.24397	0.13737	0.10422	-0.29065	0.75511	-5.4699	781.3978	-44.998	279.9285	47.498	796.99	-0.0592	0.0182	-0.0073	-0.0462	0.0165	0.9585
16.172	-0.37954	-1.4672	0.20471	0.58118	-0.41191	-0.81693	-3.6005	771.0889	-43.7821	276.3122	45.1979	782.8362	-0.0592	0.0182	-0.0073	-0.0462	0.0165	0.9585
16.1855	-0.44347	-2.9731	0.26097	1.174	-0.50405	-2.6759	-1.2604	759.5816	-42.9569	272.2136	43.1294	767.4455	-0.0592	0.0182	-0.0073	-0.0462	0.0165	0.9585
16.199	-0.40129	-4.6439	0.2902	1.8345	-0.52329	-4.6955	1.5811	748.1825	-42.6089	268.1131	41.3926	752.1194	-0.0592	0.0182	-0.0073	-0.0462	0.0165	0.9585
16.2125	-0.1691	-6.2024	0.25683	2.4536	-0.39822	-6.5725	4.879	738.1547	-42.7874	264.477	40.0632	738.1413	-0.0592	0.0182	-0.0073	-0.0462	0.0165	0.9585
16.226	0.35077	-7.1572	0.11761	2.8385	-0.040115	-7.7381	8.5493	730.5007	-43.5069	261.6756	39.193	726.5482	-0.0592	0.0182	-0.0073	-0.0462	0.0165	0.9585
16.2395	1.2872	-6.7688	-0.18722	2.6964	0.6671	-7.3364	12.4318	725.8106	-44.734	259.9238	38.8065	718.0054	-0.0592	0.0182	-0.0073	-0.0462	0.0165	0.9585
16.253	2.7353	-3.9797	-0.71652	1.6156	1.8311	-4.1357	16.3028	724.1572	-46.3841	259.2436	38.8928	712.685	-0.0592	0.0182	-0.0073	-0.0462	0.0165	0.9585
16.2665	4.7666	2.5569	-1.5255	-0.92678	3.5399	3.4135	19.9035	725.0778	-48.3182	259.4601	39.4016	710.2477	-0.0592	0.0182	-0.0073	-0.0462	0.0165	0.9585
16.28	7.3479	14.3495	-2.6431	-5.5152	5.8129	17.0567	22.9824	727.6152	-50.3483	260.2177	40.231	709.8741	-0.0592	0.0182	-0.0073	-0.0462	0.0165	0.9585
16.2935	10.2728	32.8312	-4.05	-12.7037	8.5434	38.4552	25.3503	730.3625	-52.2439	261.0034	41.2131	710.2769	-0.0592	0.0182	-0.0073	-0.0462	0.0165	0.9585
16.307	13.0829	58.9116	-5.6302	-22.8404	11.412	68.6551	26.8799	731.5724	-53.7528	261.1881	42.1374	709.8161	-0.0592	0.0182	-0.0073	-0.0462	0.0165	0.9585
16.3205	14.9446	92.2892	-7.1367	-35.8017	13.8017	107.3134	27.5432	729.3077	-54.6312	260.0864	42.775	706.6215	-0.0592	0.0182	-0.0073	-0.0462	0.0165	0.9585
16.334	14.6811	130.5938	-8.1304	-50.6599	14.7468	151.6878	27.3963	721.7465	-54.6681	257.064	42.9059	698.8937	-0.0592	0.0182	-0.0073	-0.0462	0.0165	0.9585
16.3475	11.474	169.0177	-7.9476	-65.5323	13.1902	196.2395	26.5745	707.565	-53.7213	251.6752	42.3496	685.2651	-0.0592	0.0182	-0.0073	-0.0462	0.0165	0.9585
